<?xml version="1.0" encoding="UTF-8"?>
<svg width="55px" height="2668px" viewBox="0 0 55 2668" version="1.1" xmlns="http://www.w3.org/2000/svg" xmlns:xlink="http://www.w3.org/1999/xlink">
    <!-- Generator: Sketch 52.3 (67297) - http://www.bohemiancoding.com/sketch -->
    <title>Group</title>
    <desc>Created with Sketch.</desc>
    <g id="Page-1" stroke="none" stroke-width="1" fill="none" fill-rule="evenodd">
        <g id="Group" transform="translate(3.000000, 3.000000)">
            <polygon id="Path" stroke="#50E3C2" stroke-width="5" fill="#B0FFEE" points="0.352509 49.8848847 48.90625 261.296875 0.352509 688.921875 48.90625 1195.6875 0.352509 1869.375 48.90625 2360.96875 9.106395 2500.18143 1.578125 2660.54688 48.90625 2632.46875 0.352509 2427.5 48.90625 1965 1.578125 1195.6875 48.90625 810.546875 0.352509 261.296875 48.90625 9.78125 0.352509 0.235607"></polygon>
            <polygon id="Path" fill="#FFFFFF" points="41.344364 262.523156 19.785636 201 8 262.051353 22.619876 427.434426"></polygon>
            <polygon id="Path-Copy" fill="#FFFFFF" points="41.280074 17.8826497 7.879151 6.48185244 9.106395 52.1011672 22.619876 107.434426"></polygon>
            <polygon id="Path-path" fill="#FFFFFF" fill-rule="nonzero" points="7.879151 1869.27526 28.982963 2082.94576 41.382081 1964.83762 22.782039 1662.49636"></polygon>
            <polygon id="Path-path" fill="#FFFFFF" fill-rule="nonzero" points="9.106395 1195.91654 23.964179 1437.42788 41.380403 1195.7762 27.248691 1048.28054"></polygon>
            <polygon id="Path-path" fill="#FFFFFF" fill-rule="nonzero" points="8 2427.06495 12.042729 2444.13127 41.335269 2360.11225 28.583107 2231"></polygon>
            <polygon id="Path-path-Copy" fill="#FFFFFF" fill-rule="nonzero" points="13.606403 2535.42054 7.879151 2646.5769 41.280074 2628.73551 13.606403 2515.58274"></polygon>
            <polygon id="Path" fill="#FFFFFF" points="41.365635 810.41829 20.677678 576.391815 7.893191 688.988005 29.094833 910.27402"></polygon>
        </g>
    </g>
</svg>