<?xml version="1.0" encoding="UTF-8"?>
<svg width="1280px" height="576px" viewBox="0 0 1280 576" version="1.1" xmlns="http://www.w3.org/2000/svg" xmlns:xlink="http://www.w3.org/1999/xlink">
    <!-- Generator: Sketch 52.2 (67145) - http://www.bohemiancoding.com/sketch -->
    <title>Group</title>
    <desc>Created with Sketch.</desc>
    <g id="Page-1" stroke="none" stroke-width="1" fill="none" fill-rule="evenodd">
        <g id="Group" transform="translate(1.000000, 1.000000)" fill-rule="nonzero">
            <path d="M2.75489906,571.180688 C47.8126248,503.812973 76.3914894,467.59102 88.4914926,462.514828 C117.548516,450.32483 148.683556,404.547429 178,392.072684 C228.400936,370.626057 223.200461,371.483425 266.234659,339.638119 C323.330244,297.387386 362.688558,235.878027 410.617895,184.096304 C427.571807,165.779699 391.715102,187.756118 537.911715,89.3683285 C573.731914,65.2619543 620.12146,62.9679479 659.86199,47.480233 C692.416699,34.7929822 720.419404,6.34060748 755.218618,0.157603763 C757.368745,-0.224423413 754.805591,4.60667905 753.828965,6.55993116 C747.800092,18.6176779 741.368748,30.4957299 734.307657,41.9795253 C726.541749,54.6095974 704.403113,55.5999163 694.429594,59.2674636 C692.190332,60.0909043 689.77154,61.485218 688.771724,63.6514863 C687.671738,66.034788 687.424542,69.2733637 688.771724,71.5261835 C692.380916,77.5616439 717.513382,90.5568473 718.698882,91.0640353 C768.061587,112.182704 820.79336,78.563043 864.860542,60.0284638 C871.274976,57.3305642 876.987779,52.9556472 883.637394,50.9047337 C903.401294,44.8090349 923.535304,39.8724615 943.789493,35.6847306 C955.327869,33.2990703 967.080491,31.6913263 978.853402,31.2179905 C1004.17756,30.1998204 1029.54838,31.7576314 1054.88724,31.2179905 C1064.13747,31.0209888 1073.3076,29.2715501 1082.55622,29.0094357 C1099.30253,28.5348296 1116.08216,28.1934718 1132.81531,29.0094357 C1143.55657,29.5332148 1154.21664,31.2690501 1164.82695,33.02123 C1168.68937,33.6590676 1174.53106,32.5968941 1176.14269,36.1644915 C1177.38455,38.9135347 1170.55285,38.5094959 1167.61453,39.1919487 C1159.57002,41.0603626 1151.25939,41.7047219 1143.27079,43.7993083 C1132.8016,46.5442997 1122.79978,50.8930335 1112.34276,53.6840386 C1109.48797,54.4459877 1106.4055,53.8306174 1103.50854,54.4119518 C1098.14525,55.4882027 1092.58125,56.2677771 1087.65161,58.6388113 C1083.12464,60.8161713 1079.45111,64.4743064 1075.6824,67.7956284 C1073.18048,70.0005442 1070.7397,72.3707979 1068.90784,75.1574777 C1066.41322,78.9523968 1064.08486,82.9859451 1062.82812,87.3500237 C1061.78083,90.9867529 1062.00194,94.9000667 1062.13329,98.6823086 C1062.20493,100.745271 1062.27303,103.029054 1063.43195,104.737223 C1066.56538,109.355663 1069.6708,114.661823 1074.66498,117.153106 C1087.92038,123.76539 1102.58353,127.105927 1116.77641,131.347413 C1134.10579,136.52623 1192.13279,145.444279 1212.52181,164.359931 C1214.408,166.10982 1216.47798,167.956775 1217.36078,170.373486 C1218.39272,173.198491 1218.1622,176.369617 1218.00597,179.37314 C1217.93766,180.686384 1217.52863,182.075108 1216.69904,183.095424 C1206.09412,196.138338 1194.35879,208.240097 1183.86023,221.368768 C1182.39817,223.1971 1181.42924,225.47488 1180.97339,227.771096 C1180.44509,230.432294 1180.5057,233.237972 1180.97339,235.910489 C1181.59876,239.484031 1182.81124,242.95492 1184.21591,246.299795 C1185.03431,248.248613 1186.26459,250.022284 1187.59078,251.668155 C1190.05321,254.724151 1192.45176,257.931524 1195.53992,260.353483 C1200.16431,263.980259 1206.10959,265.766799 1210.52005,269.65092 C1215.05591,273.64548 1220.56321,277.805107 1222.01777,283.67152 C1229.21807,312.711344 1230.21196,342.978516 1235.98047,372.33631 C1237.33369,379.223299 1240.24334,385.763057 1243.3175,392.072684 C1246.68185,398.977918 1251.62515,405.016876 1255.21226,411.809057 C1257.49078,416.123412 1260.82079,420.429723 1260.87013,425.308538 C1260.99676,437.828012 1256.80151,450.041071 1255.72511,462.514828 C1255.08271,469.959301 1254.03021,477.653872 1255.72511,484.931246 C1257.47815,492.45823 1263.06179,498.585205 1265.80836,505.80912 C1267.36951,509.915173 1267.64469,514.400701 1268.56285,518.696492 C1025.44085,489.165055 842.152865,476.958723 718.698882,482.077495 C560.862208,488.621878 322.214214,518.322942 2.75489906,571.180688 Z" id="Path-6" stroke="#979797" fill-opacity="0.3" fill="#FF0000"></path>
            <path d="M0.0996702579,573.546405 L18.4712066,543.859128 L622.093221,467.469601 L1009.15279,467.469601 L1226.76575,482.077495 L1278.15807,520.508003 C935.338531,494.887665 509.319064,512.567132 0.0996702579,573.546405 Z" id="Path-5" fill="#FF0000"></path>
            <path d="M0.0996702579,573.546405 L39.8536566,486.192687 C687.128405,363.520013 1048.33327,325.421753 1123.46825,371.897908 L1278.15807,520.830601 C1150.87804,439.762027 724.858572,457.333961 0.0996702579,573.546405 Z M879.460165,391.940336 L1087.4779,427.35993 L1164.22311,454.135555 L1105.11325,391.940336 L879.460165,391.940336 Z M403.89297,442.976977 L428.898442,482.077495 C565.029238,463.449535 692.513308,450.416029 811.350651,442.976977 C930.187994,435.537924 1010.87055,435.537924 1053.39833,442.976977 L797.288691,391.940336 L403.89297,442.976977 Z M32.119579,543.859128 L387.663814,491.490737 L357.397515,454.135555 L56.2647904,507.992859 L32.119579,543.859128 Z" id="Combined-Shape" stroke="#979797" fill="#000000"></path>
        </g>
    </g>
</svg>