<?xml version="1.0" encoding="UTF-8" standalone="no"?>
<svg width="152px" height="144px" viewBox="0 0 152 144" version="1.1" xmlns="http://www.w3.org/2000/svg" xmlns:xlink="http://www.w3.org/1999/xlink">
    <!-- Generator: Sketch 43.2 (39069) - http://www.bohemiancoding.com/sketch -->
    <title>Slice 1</title>
    <desc>Created with Sketch.</desc>
    <defs>
        <radialGradient cx="50%" cy="54.9593972%" fx="50%" fy="54.9593972%" r="39.991409%" gradientTransform="translate(0.500000,0.549594),scale(0.951057,1.000000),rotate(90.000000),scale(1.000000,0.950195),translate(-0.500000,-0.549594)" id="radialGradient-1">
            <stop stop-color="#FFFFFF" offset="0%"></stop>
            <stop stop-color="#FCF311" offset="100%"></stop>
        </radialGradient>
    </defs>
    <g id="Page-1" stroke="none" stroke-width="1" fill="none" fill-rule="evenodd">
        <polygon id="Star" fill="url(#radialGradient-1)" points="76.0644531 116.09668 32.5304599 138.983854 40.8447127 90.5080405 5.62497235 56.1772784 54.2974565 49.1047525 76.0644531 5 97.8314498 49.1047525 146.503934 56.1772784 111.284194 90.5080405 119.598446 138.983854"></polygon>
        <path d="M73.7377475,111.671023 C75.1943676,110.905232 76.9345386,110.905232 78.3911588,111.671023 L112.957791,129.843777 L106.356152,91.3532658 C106.077962,89.7312954 106.615705,88.0762944 107.794135,86.9276087 L135.759128,59.6684774 L97.1124582,54.0527876 C95.4839074,53.8161453 94.0760794,52.7932984 93.3477694,51.3175811 L76.0644531,16.2977573 L58.7811369,51.3175811 C58.0528268,52.7932984 56.6449989,53.8161453 55.0164481,54.0527876 L16.3697781,59.6684774 L44.3347712,86.9276087 C45.5132016,88.0762944 46.050944,89.7312954 45.7727544,91.3532658 L39.171115,129.843777 L73.7377475,111.671023 Z M34.8571655,143.409511 C31.1890286,145.337965 26.9018664,142.22316 27.6024182,138.138629 L35.4723099,92.25364 L2.1349139,59.7577102 C-0.832671196,56.8650297 0.804879033,51.8251683 4.90598077,51.2292434 L50.9771289,44.5347137 L71.5807727,2.78717144 C73.4148412,-0.929057148 78.7140651,-0.929057148 80.5481335,2.78717144 L101.151777,44.5347137 L147.222925,51.2292434 C151.324027,51.8251683 152.961577,56.8650297 149.993992,59.7577102 L116.656596,92.25364 L124.526488,138.138629 C125.22704,142.22316 120.939878,145.337965 117.271741,143.409511 L76.0644531,121.745558 L34.8571655,143.409511 Z" id="Star" fill="#F6DE23" fill-rule="nonzero"></path>
    </g>
</svg>